<mxfile host="app.diagrams.net" modified="2023-02-07T08:30:46.927Z" agent="5.0 (Windows NT 10.0; Win64; x64) AppleWebKit/537.36 (KHTML, like Gecko) Chrome/101.0.0.0 Safari/537.36" etag="ilHVwCRgl2xEBOE7mwNq" version="20.8.5" type="github">
  <diagram id="5L5s5uM2wJenfJ0nbEnf" name="第 1 页">
    <mxGraphModel dx="1354" dy="635" grid="1" gridSize="10" guides="1" tooltips="1" connect="1" arrows="1" fold="1" page="1" pageScale="1" pageWidth="827" pageHeight="1169" math="0" shadow="0">
      <root>
        <mxCell id="0" />
        <mxCell id="1" parent="0" />
        <mxCell id="Y9AQ3P6Cmwsa3wJ9Wi3x-6" style="edgeStyle=orthogonalEdgeStyle;rounded=0;orthogonalLoop=1;jettySize=auto;html=1;" parent="1" source="Y9AQ3P6Cmwsa3wJ9Wi3x-3" target="Y9AQ3P6Cmwsa3wJ9Wi3x-5" edge="1">
          <mxGeometry relative="1" as="geometry" />
        </mxCell>
        <mxCell id="Y9AQ3P6Cmwsa3wJ9Wi3x-7" value="否" style="edgeLabel;html=1;align=center;verticalAlign=middle;resizable=0;points=[];" parent="Y9AQ3P6Cmwsa3wJ9Wi3x-6" vertex="1" connectable="0">
          <mxGeometry x="-0.6989" y="-4" relative="1" as="geometry">
            <mxPoint as="offset" />
          </mxGeometry>
        </mxCell>
        <mxCell id="Y9AQ3P6Cmwsa3wJ9Wi3x-8" value="是" style="edgeStyle=orthogonalEdgeStyle;rounded=0;orthogonalLoop=1;jettySize=auto;html=1;" parent="1" source="Y9AQ3P6Cmwsa3wJ9Wi3x-1" target="Y9AQ3P6Cmwsa3wJ9Wi3x-3" edge="1">
          <mxGeometry relative="1" as="geometry" />
        </mxCell>
        <mxCell id="Y9AQ3P6Cmwsa3wJ9Wi3x-1" value="开始" style="strokeWidth=2;html=1;shape=mxgraph.flowchart.start_1;whiteSpace=wrap;" parent="1" vertex="1">
          <mxGeometry x="260" y="50" width="100" height="60" as="geometry" />
        </mxCell>
        <mxCell id="Y9AQ3P6Cmwsa3wJ9Wi3x-13" value="是" style="edgeStyle=orthogonalEdgeStyle;rounded=0;orthogonalLoop=1;jettySize=auto;html=1;" parent="1" source="Y9AQ3P6Cmwsa3wJ9Wi3x-3" target="Y9AQ3P6Cmwsa3wJ9Wi3x-9" edge="1">
          <mxGeometry relative="1" as="geometry" />
        </mxCell>
        <mxCell id="Y9AQ3P6Cmwsa3wJ9Wi3x-3" value="资源是否存在" style="strokeWidth=2;html=1;shape=mxgraph.flowchart.decision;whiteSpace=wrap;" parent="1" vertex="1">
          <mxGeometry x="260" y="150" width="100" height="100" as="geometry" />
        </mxCell>
        <mxCell id="Y9AQ3P6Cmwsa3wJ9Wi3x-5" value="结束" style="strokeWidth=2;html=1;shape=mxgraph.flowchart.terminator;whiteSpace=wrap;" parent="1" vertex="1">
          <mxGeometry x="150" y="480" width="100" height="60" as="geometry" />
        </mxCell>
        <mxCell id="Y9AQ3P6Cmwsa3wJ9Wi3x-12" style="edgeStyle=orthogonalEdgeStyle;rounded=0;orthogonalLoop=1;jettySize=auto;html=1;entryX=0.5;entryY=0;entryDx=0;entryDy=0;entryPerimeter=0;" parent="1" source="Y9AQ3P6Cmwsa3wJ9Wi3x-9" target="Y9AQ3P6Cmwsa3wJ9Wi3x-5" edge="1">
          <mxGeometry relative="1" as="geometry" />
        </mxCell>
        <mxCell id="Y9AQ3P6Cmwsa3wJ9Wi3x-14" value="是" style="edgeLabel;html=1;align=center;verticalAlign=middle;resizable=0;points=[];" parent="Y9AQ3P6Cmwsa3wJ9Wi3x-12" vertex="1" connectable="0">
          <mxGeometry x="-0.7937" relative="1" as="geometry">
            <mxPoint as="offset" />
          </mxGeometry>
        </mxCell>
        <mxCell id="Y9AQ3P6Cmwsa3wJ9Wi3x-20" value="否" style="edgeStyle=orthogonalEdgeStyle;rounded=0;orthogonalLoop=1;jettySize=auto;html=1;" parent="1" source="Y9AQ3P6Cmwsa3wJ9Wi3x-9" target="Y9AQ3P6Cmwsa3wJ9Wi3x-15" edge="1">
          <mxGeometry relative="1" as="geometry" />
        </mxCell>
        <mxCell id="Y9AQ3P6Cmwsa3wJ9Wi3x-9" value="资源是否已发布" style="strokeWidth=2;html=1;shape=mxgraph.flowchart.decision;whiteSpace=wrap;" parent="1" vertex="1">
          <mxGeometry x="260" y="300" width="100" height="100" as="geometry" />
        </mxCell>
        <mxCell id="Y9AQ3P6Cmwsa3wJ9Wi3x-21" value="" style="edgeStyle=orthogonalEdgeStyle;rounded=0;orthogonalLoop=1;jettySize=auto;html=1;" parent="1" source="Y9AQ3P6Cmwsa3wJ9Wi3x-15" target="Y9AQ3P6Cmwsa3wJ9Wi3x-16" edge="1">
          <mxGeometry relative="1" as="geometry" />
        </mxCell>
        <mxCell id="Y9AQ3P6Cmwsa3wJ9Wi3x-15" value="删除基本信息" style="rounded=1;whiteSpace=wrap;html=1;absoluteArcSize=1;arcSize=14;strokeWidth=2;" parent="1" vertex="1">
          <mxGeometry x="414" y="320" width="100" height="60" as="geometry" />
        </mxCell>
        <mxCell id="Y9AQ3P6Cmwsa3wJ9Wi3x-28" value="" style="edgeStyle=orthogonalEdgeStyle;rounded=0;orthogonalLoop=1;jettySize=auto;html=1;" parent="1" source="Y9AQ3P6Cmwsa3wJ9Wi3x-16" target="Y9AQ3P6Cmwsa3wJ9Wi3x-17" edge="1">
          <mxGeometry relative="1" as="geometry" />
        </mxCell>
        <mxCell id="Y9AQ3P6Cmwsa3wJ9Wi3x-16" value="删除配置信息" style="rounded=1;whiteSpace=wrap;html=1;absoluteArcSize=1;arcSize=14;strokeWidth=2;" parent="1" vertex="1">
          <mxGeometry x="550" y="320" width="100" height="60" as="geometry" />
        </mxCell>
        <mxCell id="Y9AQ3P6Cmwsa3wJ9Wi3x-34" value="" style="edgeStyle=orthogonalEdgeStyle;rounded=0;orthogonalLoop=1;jettySize=auto;html=1;" parent="1" source="Y9AQ3P6Cmwsa3wJ9Wi3x-17" target="Y9AQ3P6Cmwsa3wJ9Wi3x-25" edge="1">
          <mxGeometry relative="1" as="geometry" />
        </mxCell>
        <mxCell id="Y9AQ3P6Cmwsa3wJ9Wi3x-17" value="删除数据项信息" style="rounded=1;whiteSpace=wrap;html=1;absoluteArcSize=1;arcSize=14;strokeWidth=2;" parent="1" vertex="1">
          <mxGeometry x="700" y="320" width="100" height="60" as="geometry" />
        </mxCell>
        <mxCell id="Y9AQ3P6Cmwsa3wJ9Wi3x-31" value="" style="edgeStyle=orthogonalEdgeStyle;rounded=0;orthogonalLoop=1;jettySize=auto;html=1;" parent="1" source="Y9AQ3P6Cmwsa3wJ9Wi3x-25" target="Y9AQ3P6Cmwsa3wJ9Wi3x-29" edge="1">
          <mxGeometry relative="1" as="geometry" />
        </mxCell>
        <mxCell id="Y9AQ3P6Cmwsa3wJ9Wi3x-25" value="删除数据库结果文件" style="rounded=1;whiteSpace=wrap;html=1;absoluteArcSize=1;arcSize=14;strokeWidth=2;" parent="1" vertex="1">
          <mxGeometry x="700" y="480" width="100" height="60" as="geometry" />
        </mxCell>
        <mxCell id="Y9AQ3P6Cmwsa3wJ9Wi3x-32" value="" style="edgeStyle=orthogonalEdgeStyle;rounded=0;orthogonalLoop=1;jettySize=auto;html=1;" parent="1" source="Y9AQ3P6Cmwsa3wJ9Wi3x-29" target="Y9AQ3P6Cmwsa3wJ9Wi3x-30" edge="1">
          <mxGeometry relative="1" as="geometry" />
        </mxCell>
        <mxCell id="Y9AQ3P6Cmwsa3wJ9Wi3x-29" value="删除标签关联" style="rounded=1;whiteSpace=wrap;html=1;absoluteArcSize=1;arcSize=14;strokeWidth=2;" parent="1" vertex="1">
          <mxGeometry x="530" y="480" width="100" height="60" as="geometry" />
        </mxCell>
        <mxCell id="jMqVpv_YyF_2dCSrCcOR-1" value="" style="edgeStyle=orthogonalEdgeStyle;rounded=0;orthogonalLoop=1;jettySize=auto;html=1;" edge="1" parent="1" source="Y9AQ3P6Cmwsa3wJ9Wi3x-30" target="Y9AQ3P6Cmwsa3wJ9Wi3x-5">
          <mxGeometry relative="1" as="geometry" />
        </mxCell>
        <mxCell id="Y9AQ3P6Cmwsa3wJ9Wi3x-30" value="删除统计数据" style="rounded=1;whiteSpace=wrap;html=1;absoluteArcSize=1;arcSize=14;strokeWidth=2;" parent="1" vertex="1">
          <mxGeometry x="350" y="480" width="100" height="60" as="geometry" />
        </mxCell>
      </root>
    </mxGraphModel>
  </diagram>
</mxfile>
